<svg id="Capa_1" enable-background="new 0 0 512 512" height="512" viewBox="0 0 512 512" width="512" xmlns="http://www.w3.org/2000/svg"><g><g><path d="m390.253 425.578-206.732 75.244c-23.317 8.487-49.19-3.578-57.677-26.895l-123.127-338.289c-8.487-23.317 3.579-49.191 26.895-57.677l206.732-75.244c23.317-8.487 49.19 3.578 57.677 26.895l123.127 338.289c8.487 23.317-3.578 49.191-26.895 57.677z" fill="#5e54ac"/><g><path d="m236.344 2.717-103.366 37.622 153.909 422.861 103.366-37.622c23.317-8.487 35.382-34.36 26.895-57.677l-123.127-338.289c-8.486-23.317-34.36-35.382-57.677-26.895z" fill="#453d81"/></g><path d="m278.389 157.211h-.001c-22.767.622-44.231 8.434-62.072 22.592-5.369 4.261-9.911 8.686-13.754 12.98-11.936-20.784-29.931-37.375-52.102-47.714h-.001c-7.508-3.501-16.432-.253-19.933 7.255l-.001.001c-3.501 7.508-.253 16.432 7.255 19.933 14.094 6.573 25.903 16.552 34.591 28.956-4.255-.405-8.788-.603-13.587-.472-22.768.621-44.23 8.436-62.072 22.592l-.001.001c-6.488 5.15-7.574 14.584-2.425 21.073l.001.001c5.149 6.489 14.584 7.574 21.073 2.425l.001-.001c14.749-11.705 30.778-15.832 44.983-16.119-1.914 1.75-3.831 3.62-5.732 5.628-15.659 16.539-25.313 37.24-27.917 59.866v.001c-.947 8.229 4.956 15.669 13.186 16.616h.001c8.23.947 15.669-4.956 16.616-13.186v-.001c3.172-27.566 19.936-45.475 34.835-55.112l45.546 125.135 28.191-10.261-45.546-125.135c17.608-2.194 41.961.75 62.11 19.827l.001.001c6.015 5.695 15.509 5.436 21.205-.58l.001-.001c5.695-6.015 5.436-15.509-.58-21.204-16.539-15.659-37.24-25.312-59.867-27.916-2.748-.316-5.419-.517-8.01-.627 11.066-8.911 25.998-16.053 44.821-16.567h.001c8.281-.226 14.81-7.123 14.584-15.403v-.002c-.225-8.279-7.121-14.808-15.401-14.582z" fill="#00eed1"/><g><path d="m278.389 157.211h-.001c-22.767.622-44.231 8.434-62.072 22.592-5.369 4.261-9.911 8.686-13.754 12.98-6.623-11.533-15.118-21.768-25.15-30.366l73.564 202.116 14.095-5.13-45.546-125.135c17.608-2.194 41.961.75 62.11 19.827l.001.001c6.015 5.695 15.509 5.436 21.205-.58l.001-.001c5.695-6.015 5.436-15.509-.58-21.204-16.539-15.659-37.24-25.312-59.867-27.916-2.748-.316-5.419-.517-8.01-.627 11.066-8.911 25.998-16.053 44.821-16.567h.001c8.281-.226 14.81-7.123 14.584-15.403v-.002c-.226-8.282-7.122-14.811-15.402-14.585z" fill="#00b6bd"/></g></g><g><path d="m467 512h-220c-24.813 0-45-20.187-45-45v-360c0-24.813 20.187-45 45-45h220c24.813 0 45 20.187 45 45v360c0 24.813-20.187 45-45 45z" fill="#f9f9f9"/><g><path d="m467 62h-110v450h110c24.813 0 45-20.187 45-45v-360c0-24.813-20.187-45-45-45z" fill="#e2dff4"/></g><path d="m453.669 221.557h-.001c-21.606-7.202-44.448-7.202-66.056 0-6.502 2.167-12.284 4.772-17.364 7.493-4.108-23.613-15.343-45.358-32.641-62.656-5.858-5.857-15.354-5.858-21.212 0l-.001.001c-5.858 5.858-5.858 15.355 0 21.213 10.996 10.997 18.68 24.413 22.602 39.041-3.86-1.836-8.052-3.573-12.607-5.091-21.607-7.203-44.448-7.2-66.056 0h-.001c-7.858 2.62-12.105 11.114-9.486 18.973l.001.002c2.62 7.859 11.114 12.106 18.973 9.486h.001c17.863-5.955 34.337-4.35 47.784.238-2.397.99-4.838 2.092-7.311 3.328-20.372 10.186-36.523 26.337-46.708 46.708-3.705 7.409-.702 16.419 6.708 20.124h.001c7.409 3.705 16.419.702 20.124-6.708v-.001c12.409-24.818 34.287-35.914 51.583-39.874v133.166h30v-133.166c17.297 3.96 39.174 15.056 51.583 39.874v.001c3.705 7.409 12.715 10.413 20.124 6.708h.001c7.409-3.705 10.412-12.714 6.708-20.124-10.186-20.371-26.337-36.522-46.708-46.708-2.474-1.237-4.915-2.339-7.312-3.329 13.447-4.588 29.92-6.193 47.784-.238h.001c7.859 2.619 16.353-1.628 18.973-9.486l.001-.002c2.617-7.859-1.63-16.353-9.488-18.973z" fill="#00eed1"/><g><path d="m453.669 221.557h-.001c-21.606-7.202-44.448-7.202-66.056 0-6.502 2.167-12.284 4.772-17.364 7.493-2.279-13.102-6.762-25.625-13.248-37.137v215.087h15v-133.166c17.297 3.96 39.174 15.056 51.583 39.874v.001c3.705 7.409 12.715 10.413 20.124 6.708h.001c7.409-3.705 10.412-12.714 6.708-20.124-10.186-20.371-26.337-36.522-46.708-46.708-2.474-1.237-4.915-2.339-7.312-3.329 13.447-4.588 29.92-6.193 47.784-.238h.001c7.859 2.619 16.353-1.628 18.973-9.486l.001-.002c2.619-7.859-1.628-16.353-9.486-18.973z" fill="#00b6bd"/></g><g><path d="m397 412h-80c-8.284 0-15-6.716-15-15 0-8.284 6.716-15 15-15h80c8.284 0 15 6.716 15 15 0 8.284-6.716 15-15 15z" fill="#00eed1"/></g><g><path d="m397 382h-40v30h40c8.284 0 15-6.716 15-15s-6.716-15-15-15z" fill="#00b6bd"/></g></g></g></svg>